<svg width="12" height="12" viewBox="0 0 12 12" fill="none" xmlns="http://www.w3.org/2000/svg">
<path d="M0.484629 3.31239C0.698013 3.13344 1.0108 3.13971 1.21684 3.32706L4.87341 6.65192C5.32409 7.06172 5.54944 7.26662 5.81144 7.32356C5.95139 7.35397 6.09623 7.35397 6.23618 7.32356C6.49818 7.26662 6.72353 7.06172 7.17421 6.65192L10.8334 3.32472C11.0365 3.14004 11.3461 3.13821 11.5514 3.32048V3.32048C11.7907 3.53299 11.7923 3.90633 11.5548 4.12084L6.41667 8.7605C6.16667 8.98967 5.83333 9.10425 5.58333 8.87508L0.464647 4.1479C0.218172 3.92027 0.227555 3.52796 0.484629 3.31239V3.31239Z"/>
</svg>
